<?xml version="1.0" encoding="UTF-8"?>
<svg version="1.1" viewBox="0 0 900 900" width="30" height="40" xmlns="http://www.w3.org/2000/svg">
<path transform="translate(450,168)" d="m0 0 11 2 6 4 4 7 1 4 1 21 4 12 5 3 6-1 3-2 1-6-2-14-1-8 5-8 8-6h7l10 5 17 12 11 9 13 11v2l-4 3 2 6 4 7-10 1 6 14 3 3v2h-7l-6-1 2 6 12 18 14 17 12 13 4 6 14 10 12 11 9 13 8 15 5 15 3 17 8 3 4 5 4 20 2 32v49l-2 27-4 16-7 11-10 13-15 20-13 16-11 14-11 13-10 11-1 2 14-2 15 2 14 7 8 9 4 9v9l-5 10-13 16-11 14-8 9-11 5h-10l-10-4-17-10-25-10-25-6-30-3h-34l-26 3-22 5-21 7-16 8-14 8-6 2h-10l-9-4-7-6-13-17-11-13-7-12-1-10 4-10 6-7 9-6 7-3 13-2h12l-12-14-28-35-13-17-16-21-8-14-4-21-1-15v-59l2-26 3-18 6-9 9 3 2-15 5-18 8-16 10-14 9-10 10-7 17-9 8-11 7-10 9-17 7-20v-2h-6l2-5 3-7v-3l-6-3 1-4 2-2 3-9-6-1v-4l15-6 11-7 10-7 15-8 17-5 4 1 3 9 2 25 4 5 7 4 7-1 4-5 1-12-3-10-3-3-9-3 1-4 6-7 9-5zm-23 98-11 4-23 10-8 3-21 4-8 1-5 6v2l-3 1v2l-5 2v2h17l13 2 11 5 11 8 10 9 11 11 4 1 8-5 8-6-7-14v-19l4-11 3-3-1-5-3-1-2-9zm64 5-3 3v5l10 10 18 13 1 2h2v3l-11 1-3 3-15 5-11 2 1 13 4 7 21-18 11-8 7-4 6-3 10-1 1-2-8-11-6-7-7-2-8-1-11-6-4-3zm-146 66-12 4-11 6-10 9-6 8-5 12-3 15v20l3 12 6 9 8 7 11 5 11 2 16-2 7-4 4-3h10l10 6 9 9 8 7 6 8 2 6-1 5 4 5 4 8 9 27v7l-4 8-6 4v2l-4 2-4 7-3 6-2 16 2 14 6 9 10 9 12 6h3l2-88v-25l-1-21-14-19-11-12-5-3-13-5-11-6-15-10-22-15-20-13-8-5-1-2h6l5-5 9-11 1-2 4 2 11 9 15 11 15 10 32 16 17 12 15 13 3 3 5-1 9-9 14-11 16-6 21-12 22-14 30-19 5 1 5 5 7 8 1 3-5 2-19 10-12 8-16 12-19 14-12 5-6 3-10 11-9 11-8 10-1 9-2 47v47l2 32 4 1 11-7 5-5 7-9 5-13 1-12-3-12-4-9-3-5-8-4-10-3-1-6v-9l3-17 5-16 4-9 4-1 5-1 7-10 17-16 9-7 3-1h10l6 4 5 3 9 2h8l13-3 10-5 8-8 4-7 3-9v-27l-4-15-6-12-7-8-13-9-13-5-4-1h-13l-12 6-11 9-7 11-1 2v21l-3 5-10 4-18 4-25 2-2-1h-7l-3 1-27-2-17-4-9-5h-2l-1-3v-22l-3-6-6-8-10-8-9-5-4-1zm82 10 2 4 12 12 6 7 2 5 4-2 3-3v-2h2l9-11 9-9v-1zm-154 98v26l3 26 4 15 6 11 9 10 11 10h3l-2-14-2-10-1-12-15-9-4-6-4-13-2-28-4-6zm15 19v19l4 6 8 6 3 1 1-13 1-3 2-1-1-3-10-6-6-6zm52 23v7l12 52 6 18 9 17h1v-25l2-14 6-18v-8l-8-10-12-18-4-1zm27 1 1 5 7 11 4 5 4-2 4-12v-6l-5-1zm144 0 1 7 7 16 4-2 6-9 7-11v-1zm42-1-8 1-7 11-14 21v6l6 16 5 17 2 11 4-4 4-10 11-44 4-19v-5l-1-1zm-177 114 4 16 3 17 1 17 12-2 20-2h11l-1-3-18-10-11-9-5-4-11-15zm142 16-9 10-9 7-16 9-6 3v1l28 2 10 1 3-28v-5z" fill="#030504"/>
<path transform="translate(431,651)" d="m0 0h43l22 2 19 3 21 5 20 6 24 10 22 12 12 1-6 9-11 13-8 9-5 3h-9l-10-5-14-8-25-10-19-5-24-4-13-1h-37l-23 2-24 5-24 8-16 8-17 9-3 1h-8l-8-6-9-10-10-13-4-5h10l16-8 23-11 30-10 28-6 13-2z" fill="#00974D"/>
<path transform="translate(346,306)" d="m0 0h12l17 3 14 7 10 8 16 17 19 19 7 8 7 9 2 15-1 4-8 1-26-3-16-5-4-4-4-10v-14l-6-10-8-8-12-7-9-3-12-1-11 4-13 8-10 9-7 9-5 12-3 17-1 7v10l3 15 3 5 7 9 8 7 11 5 8 2h10l11-3 13-6 5-2 17 14 10 10 3 5v6l-2 4-14 3-19 2-17 1h-12l-14-3-16-8-14-9-13-13-8-14-5-13-4-19v-27l4-15 8-15 9-11 7-8 10-9 14-9 11-4z" fill="#E1B283"/>
<path transform="translate(548,305)" d="m0 0 18 1 16 5 11 6 9 7 10 9 11 13 7 11 5 14 2 16v16l-3 20-4 12-6 11-13 15-14 11-16 8-8 3-12 2-27-1-22-2-11-3-1-3v-9l9-10 11-10 8-6 6 1 13 6 14 3h7l12-3 11-7 8-8 5-8 3-9v-31l-4-15-6-11-9-10-7-6-12-7-9-3-10-1-10 3-13 7-10 9-5 8-2 8-2 15-2 5-3 3-20 5-24 2-7-2v-12l3-7 9-10 7-8 7-7 7-8 12-14 8-7 15-10 14-5z" fill="#E1B283"/>
<path transform="translate(252,403)" d="m0 0 6 1 6 26 2 14 1 14 1 32 1 14 4 16 6 10 13 13 10 8 14 12 6 4-4-15-6-30-1-8v-16l4-8 6-5 5 2 5 6 5 15 9 38 5 17 5 12 13 27 6 17 2 16-3 9-7 6-11 5-9-3-14-12-15-16-9-10-9-11-12-13-9-11-11-12-12-18-5-13-2-10-1-21v-60l1-27 2-10z" fill="#00984E"/>
<path transform="translate(644,402)" d="m0 0 4 2 3 9 2 23 1 31v20l-2 38-3 14-8 16-11 15-12 14-9 10-7 8-14 15-11 12-7 8-11 11-9 6-5 1-12-5-5-4-3-5v-16l5-17 16-34 5-14 4-15 8-33 5-15 5-8 3-3h6l5 5 3 12-1 12-4 23-7 28 7-4 13-11 11-9 3-3h2l2-4 8-9 4-8 3-13 1-37 3-33 7-30z" fill="#00984E"/>
<path transform="translate(488,474)" d="m0 0 10 4 5 5 7 14 16 40 4 2 4 14h-2l1 3-1 22-3 13-8 17-8 10-7 7-14 9-19 7-12 3-10 1-11-1-18-6-14-8-11-9-9-7-6-11-7-14-3-10-2-40 4-12 4-2 7-16 12-21 4-4 6 1 5 6 4 10 3 8 2 11v5l-5 4-7 8-6 9-4 10-1 5v11l3 12 6 10 9 9 16 8 21 4h9l15-4 6-4 8-7 8-13 4-15v-16l-5-12-3-3v-2l-4-2-12-9-4-5 1-16 5-22 4-9z" fill="#DFB182"/>
<path transform="translate(337,365)" d="m0 0 4 2 11 9 15 11 15 10 32 16 17 12 15 13 3 3 5-1 9-9 14-11 16-6 21-12 22-14 30-19 5 1 5 4 6 9-21 11-18 12-19 14-15 10-14 6-15 15-9 11-7 9-1 5-2 52v54l1 29-1 1h-9l-11-1-1-1v-88l1-24v-10l-1 17-1 6h-1v-14l1-16 1-6-4-8-13-17-9-10-7-4-10-4-17-9-10-7-15-10-13-9-12-8-7-6 2-1 2-4z" fill="#00A3DD"/>
<path transform="translate(450,168)" d="m0 0 11 2 6 4 4 7 1 4 1 21 4 12 8 4v4l6-3 3-8v-27l6-7 9-2 14 7 10 9 9 8-1 2-16-8-4-1h-16l-1 3v23l-2 7-7 8-6 3-7-1-5-4-4-5-6-3-1 3 4 7 8 7 16-1h14l3 4 4 13 2 10v6l-4-2-6-8-4-11v-3h-4l1 13-6-1-3-8h-10v16l-7-2-4-3 4 13 3 8 4 2 1-5h1v13l-4 10-2 2-6 1-5-5-2-6v-14l-11-4-10-9-7-6-6-9-2-6-3-19-2-3-10-1-4-2-4-4-7-2-3 1-2 6 10 1v2h2l1 2-1 11-4 18-5 10-4 3-5 1 1-5 8-15 4-13 1-8h-8l-3 12-6 16-7 11-5 6h-8l1-5 6-9 9-13 4-9 1-9-5 1-10 19-9 15-10 16-5 6-6-1 1-7 8-15 13-21 11-15-4-1h-4v-4l5-2v-4l-5-2v-3l12-5 13-8 6-4h2l3 6h3l1-15-10 4-11 7-13 5h-2l-1-5 8-6 15-9 16-8 4 2 4 4 1 3v18l2 6 7 9 8 3 9-1 4-2 1-2v-22l-8-12-4-4 1-5 6-3-1-2z" fill="#00974D"/>
<path transform="translate(337,365)" d="m0 0 4 2 11 9 15 11 15 10 32 16 17 12 15 13 3 3 5-1 9-9 14-11 16-6 21-12 22-14 30-19h4l-2 6-18 11-19 12-15 10-16 9-22 10-11 9-13 12-3 1-14-12-14-11-14-9-23-11-17-11-18-13-17-12z" fill="#030504"/>
<path transform="translate(584,649)" d="m0 0h15l12 4 10 9 3 6-1 9-5 5-4 2h-8l-8-3-17-10-18-8v-4l10-6z" fill="#00984E"/>
<path transform="translate(303,649)" d="m0 0h16l10 4 10 6 1 3-23 11-16 9-8 2-8-1-5-5-2-3v-7l6-9 8-6z" fill="#00984E"/>
<path transform="translate(624,384)" d="m0 0 2 2 2 10v15l-4 16-7 11-9 11-10 9-13 8-16 5-6 1h-34l-9-2-2-1 1-4 11-9 3-3 4 2 6 4 16 3h14l11-3 10-5 9-8 10-15 7-15 2-8 1-21z" fill="#020203"/>
<path transform="translate(277,383)" d="m0 0h2l1 2 1 25 2 8 8 16 8 11 9 9 12 6 8 2h17l11-2 9-5 4-2 16 16-5 2-6 1h-33l-17-4-12-5-13-9-7-7-9-12-7-14-1-4v-25z" fill="#020203"/>
<path transform="translate(627,447)" d="m0 0 1 3-3 41-3 15-5 12-7 10-4 5-11 9h-4l1-10 3-18 1-8 12-6 6-7 4-11 2-14 1-13 4-6z" fill="#00984E"/>
<path transform="translate(400,503)" d="m0 0 4 1 5 15v5l-5 3-5 5-8 16-3 8-1 4v13l3 11 7 14 11 14 9 7 15 7 3 2v2l-11-2-16-8-8-7-6-8-8-16-3-9-1-6v-24l4-16 5-13 8-16z" fill="#020203"/>
<path transform="translate(542,317)" d="m0 0h18l3 2-16 1-8 2-12 6-10 8-9 10-6 10-1 5-1 15-1 4-6 2-17 2h-10l2-4 7-6 9-11 11-13 9-11 12-12 12-7z" fill="#030203"/>
<path transform="translate(338,317)" d="m0 0h22l16 4 6 3 10 9 5 5 10 11 11 14 12 13 7 6v2h-10l-24-4-2-21-6-12-14-15-11-7-11-4-21-3z" fill="#020203"/>
<path transform="translate(580,383)" d="m0 0 4 1v3l-24 13-12 8-16 12-19 14-12 5-6 3-9 10-9 11-8 10-1 9-2 47h-1l-1-28v-23l-1-7 8-10 12-14 12-12 16-7 17-12 19-14 18-11z" fill="#05150D"/>
<path transform="translate(492,490)" d="m0 0 3 1 6 18 11 22 8 18 4 15-1 10-5 16-4 7-1-3 4-13 1-5v-8l-3-12-7-16-6-9-9-6-8-4-1-1 1-8 6-20z" fill="#030203"/>
<path transform="translate(322,383)" d="m0 0 4 2 10 7 15 10 14 10 14 9 16 9 8 4 8 3 8 7 10 12 11 16 1 6-1 3-1 16h-2l-1-2-1-21-14-19-11-12-12-5-16-8-15-10-22-15-20-13-9-6v-2z" fill="#020605"/>
<path transform="translate(509,201)" d="m0 0h12l10 4 8 7 1 6-4 3h-2l2 6 1 4-2 1-5-3-5 1-10 5-5 1v-11l-2-15v-8z" fill="#00984E"/>
<path transform="translate(438,283)" d="m0 0h6l6 4 6 3v9l-2 9-4 4-5 1h-7l-4-4-2-6 1-9z" fill="#00984E"/>
<path transform="translate(532,243)" d="m0 0 7 3 6 8 14 23 5 10v2l-5-1-10-7-7-7-5-8-4-15z" fill="#00984E"/>
<path transform="translate(516,241)" d="m0 0h5l4 6 6 16 6 13 1 5-2 2-6-3-5-6-5-10-4-16z" fill="#00984E"/>
<path transform="translate(413,236)" d="m0 0h5l3 5 2 8v14h-5l-3-5-1-8-4 16-6 5v-7l6-24z" fill="#00984E"/>
<path transform="translate(610,466)" d="m0 0 3 1v10l-4 11-4 5-6 3-3-2 1-10 4-6 7-11z" fill="#00984E"/>
<path transform="translate(338,689)" d="m0 0h3v13l-9 4-4 2-4-1-3-5 1-4 10-5z" fill="#020303"/>
<path transform="translate(441,476)" d="m0 0h1l1 6v28l-1 23-1 77h-1v-88l1-24v-10l-1 17-1 6h-1v-14l1-16z" fill="#00984E"/>
<path transform="translate(556,685)" d="m0 0 5 2 2 2 1 9 4 1 5 1 2-5 4 1 1 12-4-1-1-2-9-3-7-5-7-3 1-4z" fill="#030203"/>
<path transform="translate(468,320)" d="m0 0h3l4 7 1 11-2 2h-10l1-8 2-5z" fill="#00984E"/>
<path transform="translate(455,321)" d="m0 0h7l-1 8-4 6-4 1-4-4v-6l4-4z" fill="#00984E"/>
<path transform="translate(419,665)" d="m0 0 5 1 2 2v3h4l1 5h-5l-3 3-4 1-2-1-1-4v-8z" fill="#030203"/>
<path transform="translate(479,665)" d="m0 0h7l3 3v8l-2 2h-8l-2-2v-8z" fill="#020303"/>
<path transform="translate(512,421)" d="m0 0 7 1-5 5-16 8-3-1 2-6 3-3 6-2h6z" fill="#019965"/>
<path transform="translate(442,324)" d="m0 0h2v13l-1 2-8 1 1-6 5-9z" fill="#00984E"/>
<path transform="translate(454,664)" d="m0 0 6 1 4 3-1 5-5 2h-5z" fill="#020F09"/>
<path transform="translate(336,693)" d="m0 0h2l-1 6-3 3-4 2-5-1v-4l6-3z" fill="#02984E"/>
<path transform="translate(515,672)" d="m0 0 5 1 3 6v5l-8-2-3-1 2-4z" fill="#022615"/>
<path transform="translate(469,180)" d="m0 0 2 1 1 4v20l-2-1-2-10v-12z" fill="#020303"/>
<path transform="translate(465,576)" d="m0 0h1l1 15v12l-1 7-2-1v-24z" fill="#109951"/>
<path transform="translate(431,664)" d="m0 0h5l3 5 2 7-7 1 1-8h-3z" fill="#030203"/>
<path transform="translate(389,671)" d="m0 0 4 2 2 6-3 5h-2v-7l-3-1v-4z" fill="#030203"/>
<path transform="translate(544,680)" d="m0 0 5 1 1 3-4 2-1 7-5-2 1-5z" fill="#030203"/>
<path transform="translate(364,678)" d="m0 0 2 1 2 8-1 5-3-1-3-12z" fill="#030203"/>
<path transform="translate(347,685)" d="m0 0h3l1 2v9l-5 3-1-2 2-3z" fill="#030203"/>
<path transform="translate(356,681)" d="m0 0 2 1 2 12-4 1-1-1v-11z" fill="#030203"/>
<path transform="translate(443,664)" d="m0 0h5l1 1 1 8h-4l-3-5z" fill="#030203"/>
<path transform="translate(373,676)" d="m0 0 3 3-1 9h-2l-2-10z" fill="#030203"/>
<path transform="translate(528,675)" d="m0 0 6 1 4 3-1 3-3-2v-2h-4l-2 4h-1v-6z" fill="#030203"/>
<path transform="translate(379,674)" d="m0 0 4 4 2 3v5h-4z" fill="#030203"/>
<path transform="translate(493,667)" d="m0 0 4 1v8l-6 2v-2h2z" fill="#030203"/>
<path transform="translate(493,300)" d="m0 0 7 3-1 5-5-1z" fill="#00984E"/>
<path transform="translate(398,671)" d="m0 0h3l3 6-1 5-4-1 1-5z" fill="#030203"/>
<path transform="translate(481,667)" d="m0 0 4 2v5l-5 1v-7z" fill="#00984E"/>
<path transform="translate(473,211)" d="m0 0 3 4 2 4 3 2v3l-4-1-3-5z" fill="#020605"/>
<path transform="translate(421,667)" d="m0 0 3 2v5l-2 2h-3l1-8z" fill="#00984E"/>
<path transform="translate(501,297)" d="m0 0 6 4 1 3-4 2-3-4z" fill="#00984E"/>
<path transform="translate(556,688)" d="m0 0h4l1 7-4-1-2-5z" fill="#00984E"/>
<path transform="translate(450,177)" d="m0 0h4v5l-4 1-2-4z" fill="#030203"/>
<path transform="translate(535,683)" d="m0 0h2v4l-6 1-4-2v-1l7-1z" fill="#030203"/>
<path transform="translate(502,415)" d="m0 0 2 1-4 5-5 1-1-3z" fill="#009858"/>
<path transform="translate(508,671)" d="m0 0 4 1-1 7h-2l-1-2z" fill="#030203"/>
</svg>
