<?xml version="1.0" encoding="UTF-8"?>
<svg version="1.1" viewBox="0 0 900 900" width="50" height="50" xmlns="http://www.w3.org/2000/svg">
<path transform="translate(162,323)" d="m0 0h34l12 1 7 7 9 11 28 34 12 14 5 5v-71h55l1 1v163l-1 1h-50l-7-8-10-13-11-13-9-11-12-14-7-9-5-6-2-1 1 4v70l-1 1h-55l-1-1v-164z" fill="#2B2A7C"/>
<path transform="translate(382,323)" d="m0 0h20l38 1 19 3 18 6 13 7 11 9 8 9 7 12 5 17 1 7v23l-3 15-7 16-8 11-11 10-13 8-14 6-16 4-20 2h-74l-1-59v-55l1-51zm31 48-1 1v69h20l16-4 8-6 5-6 3-7 1-6v-12l-2-9-6-9-9-6-13-4z" fill="#2A297C"/>
<path transform="translate(709,320)" d="m0 0h27l18 4 16 8 10 7 7 6 11 14 1 4-24 14-19 11h-4l-9-11-6-4-9-3h-12l-10 4-5 4h-2l-2 4-5 11-2 9v9l3 12 6 10 9 7 5 2 9 1 12-2 10-6 7-8 2-4 6 2 24 13 17 10-1 4-10 13-8 8-10 7-14 7-13 4-18 2h-12l-15-2-15-5-15-8-9-7-10-10-7-11-6-12-5-18v-27l5-18 8-15 9-12 7-7 15-10 10-5 17-5z" fill="#2A297C"/>
<path transform="translate(548,324)" d="m0 0h57v164l-1 1h-56z" fill="#2A297C"/>
<path transform="translate(97,324)" d="m0 0h15l1 7v207l-1 1h-15l-1-1v-213z" fill="#1D1B71"/>
<path transform="translate(382,323)" d="m0 0h20l38 1 19 3 18 6 13 7 11 9 8 9 7 12 5 17 1 7v23l-3 15-7 16-8 11-9 8h-2l1-4 5-5 5-4 3-4 4-12 4-9 1-7 1-17v-8l-1-10-3-9-2-9-4-2 1-3-2-1-5-6-5-5-5-4-1-4-5-2-7-4-12-5-8-2-11-2-3-2-5-1v2h-78l-1 25v131h78l5-1 3 4-3 1-13 1h-74l-1-59v-55l1-51z" fill="#1C1B71"/>
<path transform="translate(101,350)" d="m0 0 1 2 4 1 1 15v112l-2 39v17l-3-1v-11l-2-5-1-17-1-80v-40l1-28z" fill="#2B2A7D"/>
<path transform="translate(549,324)" d="m0 0h56v164l-1 1h-56l1-20h1l1 12 1 2 11 1h36l1-8v-131l1-4-1-14h-49l-1 31h-1z" fill="#1E1C72"/>
<path transform="translate(709,320)" d="m0 0h27l18 4 16 8 10 7 7 6 11 14 1 4-24 14-19 11h-4l-9-11-6-4-9-3h-12l-10 4-5 4h-2l-2 4-5 11-2 9-1 12-3-3-1-5h2l-1-4 5-18 3-7 6-5h2v-2l13-5h9l7 3 10 2 5 6v2l5 2 4-1h4l3 1 1-3 7-2 5-3 4-2 4-4 4-1 1-4v-3l-1-5h-2v-2l-4-2 1-3-3 1-3-4-6-5v-2l-9-3-5-2-1-2-5-1-12-5h-6l-1 1h-15l-10-2z" fill="#1C1A71"/>
<path transform="translate(269,324)" d="m0 0h55v91l-3-3-1-71-1-13-8-1h-29l-10 1v47l-1 13-2 3z" fill="#1B1970"/>
<path transform="translate(689,415)" d="m0 0 2 1 4 11 7 9 8 5 12 2 12-2 10-6 7-8 2-4 6 2 24 13 17 10-1 4-8 11h-2l-1-3 1-10-5-6h-2v-2l-7-2v-2l-8-2-1-2-11-5-8 8h-2l-1 3-7 4-10 3h-9l-16-5-4-5v-2l-3-1-6-9-1-6z" fill="#1C1A71"/>
<path transform="translate(322,433)" d="m0 0 2 2 1 53-1 1h-50l-7-8-10-13-4-5 3-1 5 3 4 5v3l3 1 4 8 1 1 9 1h31l7-1 1-49z" fill="#1D1B71"/>
<path transform="translate(156,453)" d="m0 0 2 3v13l1 13 4 2h42l2-5h4v10h-55z" fill="#1D1B72"/>
<path transform="translate(162,323)" d="m0 0h34l12 1 7 7 7 8-1 2-3-2v-2l-6-3v-2h-2v-2l-5-2-4-1h-27l-14 2-2 6v54l-1 22h-1v-87z" fill="#1D1B72"/>
<path transform="translate(695,323)" d="m0 0h5l1 3-4 2-8 2-15 8-10 4-9 9-2 6-4 2-4 6-4 11-1 6-1 4-5 5 1-10 5-12 5-9 9-12 7-7 15-10 10-5z" fill="#1D1B72"/>
<path transform="translate(410,368)" d="m0 0h3l1 3-1 1-1 68h-4v-69z" fill="#1B1970"/>
<path transform="translate(715,365)" d="m0 0h9l5 2 1 3h-14l-10 4-5 4h-2l-2 4-5 11-2 9-1 12-3-3-1-5h2l-1-4 5-18 3-7 6-5h2v-2z" fill="#1D1B72"/>
<path transform="translate(649,458)" d="m0 0 5 2 3 1 7 8 5 4 18 10 5 1v2l7 1 1 3-8-1-16-7-10-6-10-9-7-8z" fill="#1E1C72"/>
<path transform="translate(633,392)" d="m0 0 2 1 1 7v12l-1 10 1 4 3 3v8l3 1 1 7 2 4 4 2v6h-2l-8-14-5-15-2-8v-27z" fill="#1C1A71"/>
<path transform="translate(689,415)" d="m0 0 2 1 4 11 7 9 8 5 12 2 12-1-1 3-6 2h-9l-16-5-4-5v-2l-3-1-6-9-1-6z" fill="#1D1B72"/>
<path transform="translate(177,514)" d="m0 0 2 2v17l-1 5-4-1-10-13-4-3 1 16h-3v-22l5 1 8 11 5 5v-17z" fill="#6A69A3"/>
<path transform="translate(293,514)" d="m0 0h10l5 3 2 3 1 9-3 6-5 4h-12l-2-3v-20zm2 2-3 3-1 5v8l2 4 2 1h6l5-4 2-4v-6l-6-7z" fill="#62619E"/>
<path transform="translate(673,520)" d="m0 0 7 1 3 2 1 3v8l-4 5h-6l5-4 1-8-1-3-6-2v18l-3 5-2-1v-20l2-3z" fill="#393885"/>
<path transform="translate(616,513)" d="m0 0 9 2 3 4-1 3-5-5-4-1-5 2-3 5v7l3 5 7 1 5-4 1-2h2l-1 5-4 4-8 1-6-4-3-7v-7l4-6z" fill="#64639F"/>
<path transform="translate(200,520)" d="m0 0 7 1 2 3v15l-2 5-3 2h-6l-4-4h3l1 1h6l1-3-8-1-3-5-1-2v-6l4-5zm-2 3-3 7 1 5 4 2h5l2-6-1-7-2-1z" fill="#5E5D9C"/>
<path transform="translate(729,520)" d="m0 0h6l5 5v11l-2 3-7 1-7-3-1-4 1-2h3l1-3h7v-5l-6 1-2 4h-2l1-4zm5 10-7 2 2 5 3 1 4-2v-6z" fill="#2B2A7C"/>
<path transform="translate(226,346)" d="m0 0 5 5 9 10 11 14 9 10 5 7h-3l-2-4-4-2-8-7-5-7-2-5-1-3h-2v-2h-2l-7-8-3-6z" fill="#1D1B71"/>
<path transform="translate(324,520)" d="m0 0 6 2 1 2v9l-2 5-1 1h-8l-4-4v-10l4-4zm-3 3-1 6 2 1 2-1v2l-4 1 1 4h6l1-5-2-2 2-1-1-5z" fill="#585798"/>
<path transform="translate(789,521)" d="m0 0h12l3 5v12h-4l-1-13-1-1h-5l-1 14h-4v-15z" fill="#29287C"/>
<path transform="translate(216,417)" d="m0 0h2v2l5 2 2 4h2l7 9 1 4 2 1v2l4 2 7 8 4 8v3l-11-13-9-11-10-12-6-8z" fill="#1D1B71"/>
<path transform="translate(583,520)" d="m0 0 7 1 2 3 1 7-3 7-1 1h-9l-4-8 1-6zm-2 3-1 4v9l5 1 5-3v-5l-6 1 5-2-1-5z" fill="#7170A7"/>
<path transform="translate(540,520)" d="m0 0h7l4 3 1 3v12l-4 1-1-16h-6l-1 15h-3l-1-1v-12l2-4z" fill="#373684"/>
<path transform="translate(695,323)" d="m0 0h5l1 3-4 2-8 2-15 8-5 2-3-1 5-5 12-7z" fill="#1C1A71"/>
<path transform="translate(481,520)" d="m0 0h2l1 2 1 13 1 1h5l1-15h3l1 2v13l-3 3h-10l-2-3-1-5v-9z" fill="#313080"/>
<path transform="translate(704,488)" d="m0 0h35l3 2-4 2-12 1h-12l-10-1-2-2z" fill="#1D1B71"/>
<path transform="translate(222,520)" d="m0 0 6 1 3 4v8l-3 6h-8l-3-3-1-9 3-6zm-1 3-1 1v6l4-1v2l-4 1-1 2 2 3h5l2-2v-4l-2-1 2-4-1-3z" fill="#3D3C88"/>
<path transform="translate(265,520)" d="m0 0h6l4 3v15l-1 1h-12l-1-1v-15l1-2zm-2 3-1 1v6l10-1v-5l-1-1zm7 7-7 2 1 5 6 1 2-2v-6z" fill="#5A599A"/>
<path transform="translate(695,520)" d="m0 0h6l5 5v9l-4 5-6 1-5-3-3-5 1-6 4-5zm0 3-3 3-1 7 4 4 6-1 3-4-1-7-2-2z" fill="#6E6DA5"/>
<path transform="translate(638,520)" d="m0 0h7l4 4 1 2v8l-4 5-7 1-5-4-2-7 2-5zm3 2-4 2-2 8 2 4 7 1 4-5-1-6-2-3z" fill="#7B7BAE"/>
<path transform="translate(771,520)" d="m0 0h7l5 5v9l-4 5h-9l-3-3-2-8 3-6zm0 3-3 3v7l2 3 6 1 4-3v-8l-2-3z" fill="#E3E3ED"/>
<path transform="translate(446,520)" d="m0 0 6 1 3 3 1 6v9h-3l-2-14-7-2v15h-3l-1-1v-15z" fill="#5A5999"/>
<path transform="translate(778,472)" d="m0 0 2 1-7 6-16 8-6 2h-6l-1-3 12-3 10-5 1-2h3v-2z" fill="#1D1B72"/>
<path transform="translate(339,521)" d="m0 0h12l2 6v6l-4 6-8 1-2 4h-1v-21zm2 2-2 9 2 5h6l3-3 1-8-2-3z" fill="#A3A2C6"/>
<path transform="translate(364,520)" d="m0 0 7 1 4 5v8l-5 5h-7l-4-4-1-6 3-7zm-1 3-2 2-1 7 4 5h5l3-3v-9l-2-2z" fill="#6867A2"/>
<path transform="translate(387,520)" d="m0 0 5 1v2l-7 1-2 4h8l4 4-1 4-2 3-6 1-5-3 1-4 3 3h7v-4l-8-1-4-5 2-4z" fill="#4A4990"/>
<path transform="translate(519,520)" d="m0 0h8l3 3 1 14-2 2h-12l-3-4v-3h2l1 4h10v-11l-1-1h-7l-2 1 1-4z" fill="#8B8AB7"/>
<path transform="translate(633,567)" d="m0 0 6 1 5 6-1 7-2 2h-9v-12zm4 3-2 2-1 8 5 1 2-2v-6l-2-3z" fill="#C6C6DB"/>
<path transform="translate(709,565)" d="m0 0h2l1 17-4 2-7-2-1-3 1-8 3-3h4zm-5 5-1 4v8l5-1 1-8-1-3z" fill="#D0D0E1"/>
<path transform="translate(564,520)" d="m0 0h5l2 2-1 4v-2h-8l-2 8 2 4 6-1 3-4-1 7-1 1h-8l-4-5v-8l4-5z" fill="#9292BB"/>
<path transform="translate(634,426)" d="m0 0 4 1 1 2v8l3 1 1 7 2 4 4 2v6h-2l-8-14-5-15z" fill="#1D1C72"/>
<path transform="translate(584,569)" d="m0 0h5l2 2v12l-4 1-7-3-1-9 4-1 1 10h4v-7z" fill="#F3F3F7"/>
<path transform="translate(429,564)" d="m0 0h3l-1 10 8-2 1-6-3-1h6v8l-3 2-8 1-1 7h-2z" fill="#B7B6D2"/>
<path transform="translate(476,476)" d="m0 0v3l-14 5-8 2h-5v-3l6-2 13-2z" fill="#1D1B72"/>
<path transform="translate(673,520)" d="m0 0 7 1 3 2 1 3v8l-4 5h-6l5-4 1-8-1-3-6-2-1 3-1-3z" fill="#49488F"/>
<path transform="translate(200,520)" d="m0 0 7 1 2 3v6l-3-4v-2h-8l-2 8v3l4 2-4 1-3-6v-6l4-5z" fill="#8887B5"/>
<path transform="translate(728,528)" d="m0 0h7l2 2-9 2 1 4 3 1 3-1 2-5 1 4-1 3-6 2-7-3-1-4 1-2h3z" fill="#5D5C9B"/>
<path transform="translate(789,521)" d="m0 0h7l-3 1-1 16h-4v-15z" fill="#7372A8"/>
<path transform="translate(467,528)" d="m0 0h5l3 3v6l-3 2h-9l-2-7h2l2 4h7l-1-4-7-1z" fill="#6968A2"/>
<path transform="translate(444,372)" d="m0 0 7 3 7 5 3 3v2l3 1 1 5 1 6-3-3-5-10-8-6-7-3z" fill="#1D1B71"/>
<path transform="translate(721,568)" d="m0 0 6 3-1 11-1 1h-7l-2-4 1-8zm0 2-2 3v8h4l2-2v-6l-2-3z" fill="#DDDCE9"/>
<path transform="translate(408,519)" d="m0 0h6l1 4-3 2v7l1 3 3 2v2h-5l-2-6v-9z" fill="#42418B"/>
<path transform="translate(616,513)" d="m0 0 9 2 3 4-1 3-5-5-4-1-5 2-5 10h-1l1-10 5-4z" fill="#62619E"/>
<path transform="translate(430,515)" d="m0 0 2 1v23h-3v-23z" fill="#5E5D9C"/>
<path transform="translate(715,520)" d="m0 0h5v3l-4 4-1 12-3-2v-13z" fill="#6766A1"/>
<path transform="translate(659,520)" d="m0 0h5v3l-4 4-1 12h-2l-1-3v-12z" fill="#5B5A9A"/>
<path transform="translate(548,569)" d="m0 0h6l2 7-1 11-1 3-5 1 2-3h2l-1-4-4-2 4-2v-8z" fill="#DAD9E7"/>
<path transform="translate(746,519)" d="m0 0h5l1 3-1 2v11l1 4h-4l-1-12z" fill="#6F6EA6"/>
<path transform="translate(540,520)" d="m0 0m-2 1 3 1-1 16h-3l-1-1v-12z" fill="#3E3D88"/>
<path transform="translate(508,450)" d="m0 0 1 3-11 12-5 2 1-4 5-5z" fill="#1D1B72"/>
<path transform="translate(735,568)" d="m0 0 6 1-1 2-4 1v8l4 3-6 2-2-1 1-15z" fill="#DFDFEB"/>
<path transform="translate(427,368)" d="m0 0 7 1 7 2 1 2-21-1-5-1v-1z" fill="#1E1C72"/>
<path transform="translate(239,521)" d="m0 0h9l2 2-9 1-2 15h-2l-1-4 1-12z" fill="#353483"/>
<path transform="translate(303,515)" d="m0 0 5 2 2 3 1 9-2 5-3-1 1-10-4-5z" fill="#7C7CAE"/>
<path transform="translate(493,520)" d="m0 0 3 3v13l-1 2-2-1-1-1v-15z" fill="#313080"/>
<path transform="translate(638,520)" d="m0 0h7l4 4 1 2v7h-2l-3-9-4-1-6 1z" fill="#515094"/>
<path transform="translate(569,571)" d="m0 0 4 2 1 3v7l-3 7-2-1 1-9z" fill="#FDFDFD"/>
<path transform="translate(440,522)" d="m0 0 4 1v15h-3l-1-1z" fill="#41408A"/>
<path transform="translate(339,521)" d="m0 0h12l2 6v6h-1l-3-9-8-1-1 8-2-3z" fill="#B3B2CF"/>
<path transform="translate(448,436)" d="m0 0h5l-1 3-11 4h-5v-3z" fill="#1D1B71"/>
<path transform="translate(401,519)" d="m0 0 2 1 1 10v9h-3l-1-9z" fill="#2B2A7D"/>
<path transform="translate(464,568)" d="m0 0 4 1-1 2-4 1-1 2v6l7-1-1 4-5 1-3-2-1-8 3-5z" fill="#B8B8D3"/>
<path transform="translate(605,569)" d="m0 0 2 1 1 4v9l-5 1v-3l1-7z" fill="#D2D2E3"/>
<path transform="translate(760,481)" d="m0 0m-1 1m-5 1 4 1-1 3-6 2h-6l-1-3z" fill="#1C1A71"/>
<path transform="translate(185,518)" d="m0 0 2 2v18l-3-1v-10z" fill="#3C3B87"/>
<path transform="translate(488,568)" d="m0 0 7 4 4 5 2 3h6l-1 3h-5l-11-12-2-1z" fill="#7A79AD"/>
<path transform="translate(695,520)" d="m0 0h6l5 5v6l-3-4-2-3-9-1z" fill="#5D5C9B"/>
<path transform="translate(617,568)" d="m0 0 3 1-3 3-2 11h-2v-13z" fill="#D7D7E6"/>
<path transform="translate(519,520)" d="m0 0h8l3 3v5l-4-4h-7l-2 1 1-4z" fill="#4B4A90"/>
<path transform="translate(466,520)" d="m0 0 7 1v2l-7 1-3 6-2-1v-5z" fill="#6B6BA4"/>
<path transform="translate(607,520)" d="m0 0 4 12 4 5-4 1-4-5-1-4v-7z" fill="#9493BD"/>
<path transform="translate(677,565)" d="m0 0 2 1v9l-1 7-4 1 2-10z" fill="#D1D0E2"/>
<path transform="translate(579,525)" d="m0 0 2 2v9l1 3-3-1-3-7 1-4z" fill="#4C4B90"/>
<path transform="translate(503,522)" d="m0 0 2 2v13l-3 1v-15z" fill="#A9A9CA"/>
<path transform="translate(486,569)" d="m0 0h1l1 13 4-1 1 2h-8l-1-2 1-10z" fill="#C1C0D8"/>
<path transform="translate(785,566)" d="m0 0h2l1 17-3 1-1-3v-14z" fill="#CBCADE"/>
<path transform="translate(766,568)" d="m0 0 5 1v2l-7 1-5 7h-2l1-5z" fill="#D5D4E4"/>
<path transform="translate(685,569)" d="m0 0h2v8l1 5-4-1-2-2 1-5z" fill="#DFDEEA"/>
<path transform="translate(99,327)" d="m0 0h2v3l4 1-1 4h2l-2 5-3-1 1-5h-2z" fill="#2B2A7D"/>
<path transform="translate(580,571)" d="m0 0h3l1 10 2 2-5-1-2-6z" fill="#D4D3E4"/>
<path transform="translate(429,564)" d="m0 0h3l-1 10 1 2-1 7h-2z" fill="#A0A0C4"/>
<path transform="translate(261,524)" d="m0 0h1v6h3v2h-2l1 5 6 1v1h-8l-1-1z" fill="#2F2E7F"/>
<path transform="translate(771,520)" d="m0 0h7v1l-7 1v2h-2l-1 10h-2l-1-6 3-6z" fill="#7C7CAE"/>
<path transform="translate(597,569)" d="m0 0 2 1 1 11 1 2-4-1-1-1v-10z" fill="#F7F7F9"/>
<path transform="translate(158,518)" d="m0 0 1 2 2 1v16h-3z" fill="#ECECF3"/>
<path transform="translate(667,337)" d="m0 0m-2 1 2 1-12 12-3 1 2-4 7-7z" fill="#1F1E74"/>
<path transform="translate(802,575)" d="m0 0 2 2-1 5-1 1h-8l4-4z" fill="#D6D6E5"/>
<path transform="translate(450,568)" d="m0 0h4l-2 6-1 8-2 1v-12z" fill="#9291BB"/>
<path transform="translate(704,528)" d="m0 0 2 3-1 4-3 4-6 1v-3l6-3z" fill="#9493BD"/>
<path transform="translate(777,565)" d="m0 0 2 1v17l-3-1z" fill="#F1F1F6"/>
<path transform="translate(757,520)" d="m0 0 2 1v18h-2z" fill="#6968A3"/>
<path transform="translate(513,567)" d="m0 0 4 1-1 3v12h-2l-1-2z" fill="#DFDFEB"/>
<path transform="translate(741,571)" d="m0 0 3 1 1 7-3 3h-2z" fill="#F1F1F5"/>
<path transform="translate(799,521)" d="m0 0 4 2 1 3v12l-3 1 1-15h-2z" fill="#ABAACB"/>
<path transform="translate(729,520)" d="m0 0h6l2 1v2l-8 1-2 4h-2l1-4z" fill="#9998C0"/>
<path transform="translate(200,520)" d="m0 0 7 1 2 3v6l-3-4v-2l-7-1z" fill="#CECEE0"/>
<path transform="translate(770,576)" d="m0 0 2 1v5l-5 2-3-1v-2z" fill="#D3D2E3"/>
<path transform="translate(564,520)" d="m0 0h5l2 2-1 4v-2h-8l-2 2-1-2 2-3z" fill="#C7C6DC"/>
<path transform="translate(351,528)" d="m0 0h1v7l-3 4-6 1-1-2 6-3z" fill="#49498F"/>
<path transform="translate(703,570)" d="m0 0 1 4-1 8 3 1-5-1-1-3 1-7z" fill="#E9E9F1"/>
<path transform="translate(535,568)" d="m0 0 4 1v13h-2l-1-11-2-2z" fill="#FDFDFD"/>
<path transform="translate(583,520)" d="m0 0 7 1v3l-3-1h-6v2l-4 2 2-4z" fill="#B4B4D1"/>
<path transform="translate(590,533)" d="m0 0h2l-2 5-1 1h-7l-1-3 7-1z" fill="#61609E"/>
<path transform="translate(662,571)" d="m0 0 1 4-1 7h-4l1-7z" fill="#E8E7F0"/>
<path transform="translate(514,532)" d="m0 0h2l1 4 10 2v1h-10l-3-4z" fill="#6A69A3"/>
<path transform="translate(251,523)" d="m0 0 2 1v15l-2-1z" fill="#6A69A3"/>
<path transform="translate(618,513)" d="m0 0 7 2 3 4-1 3-5-5-5-2z" fill="#46458D"/>
<path transform="translate(653,577)" d="m0 0 2 3v3h-6v-5z" fill="#E7E7EF"/>
<path transform="translate(531,569)" d="m0 0 2 1-1 2-1 11-3-1 1-10z" fill="#D8D8E6"/>
<path transform="translate(493,533)" d="m0 0 1 4-1 2h-10l1-3h9z" fill="#9B9BC1"/>
<path transform="translate(737,531)" d="m0 0 1 4-1 3-6 2-6-2 3-1 7-1z" fill="#EEEDF3"/>
<path transform="translate(749,526)" d="m0 0h1l1 9 1 4h-4v-9z" fill="#6766A1"/>
<path transform="translate(768,533)" d="m0 0 5 3 6 2v1h-9l-3-3z" fill="#BEBED7"/>
<path transform="translate(158,515)" d="m0 0 5 1 1 4-3 1-3-3z" fill="#48488F"/>
<path transform="translate(546,571)" d="m0 0h1l1 11-3-1-1-7z" fill="#DCDCE9"/>
<path transform="translate(725,570)" d="m0 0 2 1-1 11h-4l2-3z" fill="#FDFDFD"/>
<path transform="translate(307,532)" d="m0 0 1 3-5 4h-5l3-3z" fill="#48478E"/>
<path transform="translate(518,528)" d="m0 0h7l1 3-7 1z" fill="#5A5999"/>
<path transform="translate(687,404)" d="m0 0h2v10l-3-3-1-5h2z" fill="#1C1A71"/>
<path transform="translate(653,351)" d="m0 0 1 2-1 4-6 2 2-5z" fill="#1C1A71"/>
<path transform="translate(506,520)" d="m0 0h5v4l-5-1z" fill="#5A599A"/>
<path transform="translate(795,569)" d="m0 0 3 1-4 6-2-3z" fill="#BEBDD6"/>
<path transform="translate(753,580)" d="m0 0h3l-1 3-5 1-1-3z" fill="#9999C0"/>
<path transform="translate(521,571)" d="m0 0 2 4-1 7-2 1z" fill="#C5C5DB"/>
<path transform="translate(469,572)" d="m0 0 3 1v5l-3 1z" fill="#7776AB"/>
<path transform="translate(666,568)" d="m0 0 5 1 1 5-6-4z" fill="#B2B2CF"/>
<path transform="translate(474,568)" d="m0 0h5l-1 4-4-1z" fill="#D7D7E6"/>
<path transform="translate(751,568)" d="m0 0 4 1-1 3-4-1-1-2z" fill="#E2E2ED"/>
<path transform="translate(650,568)" d="m0 0 5 1 1 2h-6z" fill="#C5C4DA"/>
<path transform="translate(502,568)" d="m0 0 4 1v3l-4-1z" fill="#EEEDF3"/>
<path transform="translate(477,578)" d="m0 0h2v5h-3z" fill="#BCBCD5"/>
<path transform="translate(799,568)" d="m0 0 4 1-2 2-2-1z" fill="#FDFDFD"/>
<path transform="translate(185,514)" d="m0 0h2v2h-2z" fill="#FDFDFD"/>
<path transform="translate(657,573)" d="m0 0 2 2h-2z" fill="#B7B6D2"/>
<path transform="translate(434,564)" d="m0 0 2 1z" fill="#FDFDFD"/>
<path transform="translate(401,514)" d="m0 0" fill="#2B2A7D"/>
<path transform="translate(516,583)" d="m0 0" fill="#2B2A7D"/>
<path transform="translate(688,582)" d="m0 0" fill="#FDFDFD"/>
<path transform="translate(657,582)" d="m0 0" fill="#FDFDFD"/>
</svg>
